<svg id="visual" viewBox="0 0 2560 1440" width="2560" height="1440" xmlns="http://www.w3.org/2000/svg" xmlns:xlink="http://www.w3.org/1999/xlink" version="1.1"><rect x="0" y="0" width="2560" height="1440" fill="#001220"></rect><path d="M0 1040L61 1017.3C122 994.7 244 949.3 365.8 915.8C487.7 882.3 609.3 860.7 731.2 861.7C853 862.7 975 886.3 1097 894.3C1219 902.3 1341 894.7 1463 888.3C1585 882 1707 877 1828.8 883.5C1950.7 890 2072.3 908 2194.2 933C2316 958 2438 990 2499 1006L2560 1022L2560 1441L2499 1441C2438 1441 2316 1441 2194.2 1441C2072.3 1441 1950.7 1441 1828.8 1441C1707 1441 1585 1441 1463 1441C1341 1441 1219 1441 1097 1441C975 1441 853 1441 731.2 1441C609.3 1441 487.7 1441 365.8 1441C244 1441 122 1441 61 1441L0 1441Z" fill="#fa7268"></path><path d="M0 949L61 959.3C122 969.7 244 990.3 365.8 1012.5C487.7 1034.7 609.3 1058.3 731.2 1078.8C853 1099.3 975 1116.7 1097 1108.2C1219 1099.7 1341 1065.3 1463 1059C1585 1052.7 1707 1074.3 1828.8 1076.5C1950.7 1078.7 2072.3 1061.3 2194.2 1067C2316 1072.7 2438 1101.3 2499 1115.7L2560 1130L2560 1441L2499 1441C2438 1441 2316 1441 2194.2 1441C2072.3 1441 1950.7 1441 1828.8 1441C1707 1441 1585 1441 1463 1441C1341 1441 1219 1441 1097 1441C975 1441 853 1441 731.2 1441C609.3 1441 487.7 1441 365.8 1441C244 1441 122 1441 61 1441L0 1441Z" fill="#ef5f67"></path><path d="M0 1114L61 1120.8C122 1127.7 244 1141.3 365.8 1151.3C487.7 1161.3 609.3 1167.7 731.2 1176.8C853 1186 975 1198 1097 1199.7C1219 1201.3 1341 1192.7 1463 1191C1585 1189.3 1707 1194.7 1828.8 1185C1950.7 1175.3 2072.3 1150.7 2194.2 1143.7C2316 1136.7 2438 1147.3 2499 1152.7L2560 1158L2560 1441L2499 1441C2438 1441 2316 1441 2194.2 1441C2072.3 1441 1950.7 1441 1828.8 1441C1707 1441 1585 1441 1463 1441C1341 1441 1219 1441 1097 1441C975 1441 853 1441 731.2 1441C609.3 1441 487.7 1441 365.8 1441C244 1441 122 1441 61 1441L0 1441Z" fill="#e34c67"></path><path d="M0 1176L61 1195.7C122 1215.3 244 1254.7 365.8 1275.5C487.7 1296.3 609.3 1298.7 731.2 1289.8C853 1281 975 1261 1097 1243C1219 1225 1341 1209 1463 1216.3C1585 1223.7 1707 1254.3 1828.8 1257.7C1950.7 1261 2072.3 1237 2194.2 1220.3C2316 1203.7 2438 1194.3 2499 1189.7L2560 1185L2560 1441L2499 1441C2438 1441 2316 1441 2194.2 1441C2072.3 1441 1950.7 1441 1828.8 1441C1707 1441 1585 1441 1463 1441C1341 1441 1219 1441 1097 1441C975 1441 853 1441 731.2 1441C609.3 1441 487.7 1441 365.8 1441C244 1441 122 1441 61 1441L0 1441Z" fill="#d53867"></path><path d="M0 1261L61 1265.3C122 1269.7 244 1278.3 365.8 1297C487.7 1315.7 609.3 1344.3 731.2 1341.3C853 1338.3 975 1303.7 1097 1290.3C1219 1277 1341 1285 1463 1289.2C1585 1293.3 1707 1293.7 1828.8 1303C1950.7 1312.3 2072.3 1330.7 2194.2 1327.8C2316 1325 2438 1301 2499 1289L2560 1277L2560 1441L2499 1441C2438 1441 2316 1441 2194.2 1441C2072.3 1441 1950.7 1441 1828.8 1441C1707 1441 1585 1441 1463 1441C1341 1441 1219 1441 1097 1441C975 1441 853 1441 731.2 1441C609.3 1441 487.7 1441 365.8 1441C244 1441 122 1441 61 1441L0 1441Z" fill="#c62368"></path></svg>